<?xml version="1.0" encoding="UTF-8"?>
<svg id="a" data-name="Ebene 1" xmlns="http://www.w3.org/2000/svg" viewBox="0 0 125.44463 48.24367">
  <defs>
    <style>
      .b {
        fill: #db1930;
      }
    </style>
  </defs>
  <path class="b" d="M21.72484,19.42451c.20001,1.5.20001,2.89999-.09998,4.20001-.29999,1.29999-.90002,2.20001-1.70001,3-.79999.70001-2,1.20001-3.59998,1.20001s-3.09998-.29999-4.20001-1.10001c-1.09998-.79999-2-2-2.59998-3.60001s-1-3.5-1.09998-5.70001,0-3.20001.20001-4.5.59998-2.39999,1.20001-3.29999c.5-.89999,1.20001-1.60001,2-2.10001s1.79999-.70001,2.90002-.79999,2.40002.20001,3.29999.70001c.90002.5,1.5,1.29999,2,2.29999s.70001,2.20001.70001,3.70001l7.40002-1.29999c.09998-1.70001,0-3.29999-.5-4.79999s-1.29999-2.79999-2.40002-4c-1.09998-1.10001-2.5-2-4.29999-2.60001S17.12499-.07543,14.72497.02455s-5.09998.70001-7,1.70001-3.5,2.29999-4.59998,4c-1.20001,1.60001-2,3.5-2.5,5.70001C.12499,13.52458-.07502,15.82456.02501,18.12458s.5,4.5,1.20001,6.5,1.70001,3.79999,3,5.29999,3,2.70001,5.09998,3.5,4.5,1.10001,7.29999,1,4.79999-.60001,6.59998-1.5,3.20001-2,4.20001-3.39999,1.70001-2.89999,2-4.60001.40002-3.5.09998-5.29999l-7.70001-.29999-.1001.09991Z"/>
  <path class="b" d="M48.82488,24.52452c0,.70001-.20001,1.29999-.29999,1.89999-.20001.5-.5,1-.79999,1.29999-.40002.29999-.79999.60001-1.40002.70001-.59998.10001-1.20001.20001-2,0-1.90002-.20001-3.20001-.89999-3.90002-2.29999-.59998-1.10001-.90002-2.60001-.79999-4.60001l16.29999,1.39999c.59998-2.10001.79999-4.10001.70001-5.89999,0-1.89999-.59998-3.5-1.40002-5s-2-2.70001-3.5-3.60001-3.40002-1.5-5.70001-1.79999-4.20001,0-5.90002.60001-3.09998,1.5-4.29999,2.79999c-1.09998,1.20001-2.09998,2.70001-2.70001,4.39999-.70001,1.70001-1.09998,3.5-1.29999,5.29999s-.09998,3.5.20001,5.10001.90002,3.10001,1.79999,4.5c.90002,1.29999,2.20001,2.5,3.79999,3.29999,1.59998.89999,3.59998,1.5,6.09998,1.70001s4.29999.10001,5.90002-.39999c1.59998-.5,2.90002-1.20001,3.90002-2.10001s1.70001-1.89999,2.09998-3.10001c.40002-1.10001.70001-2.20001.70001-3.29999l-7.29999-1.10001-.19995.20001ZM42.22484,13.82453c.79999-.60001,1.79999-.79999,3-.60001s2,.5,2.70001,1.10001c.59998.60001,1,1.5,1.09998,2.5v1.39999l-9-.70001c.09998-.39999.20001-.70001.29999-1.10001.40002-1.10001,1-1.89999,1.79999-2.5l.10004-.09998Z"/>
  <path class="b" d="M74.92486,8.42451c.20001-.39999.40002-.89999.59998-1.29999h0c-.70001-.39999-1.29999-.60001-2-.70001s-1.29999-.10001-1.90002,0c-1.09998.10001-2,.5-2.90002,1.29999-.79999.79999-1.40002,2-1.90002,3.60001-.40002,1.70001-.59998,3.89999-.5,6.70001h-.40002l-1-10.39999-7,.70001,1.20001,12,1.40002,14.29999,8-.79999-1-10.39999c-.20001-1.70001-.09998-3.10001.20001-4.29999.29999-1.20001.70001-2.10001,1.40002-2.79999.70001-.70001,1.5-1.10001,2.59998-1.20001h1.70001c.09998-2.60001.59998-4.89999,1.40002-6.79999l.10004.09995Z"/>
  <path class="b" d="M125.41962,32.72452c-.10004-2.39996-.5-4.59998-1.20001-6.39996s-1.59998-3.29999-2.79999-4.5h.00006c-1.20001-1.20001-2.59998-2-4.20001-2.60004-1.59998-.5-3.40002-.79999-5.40002-.59998-1.64349.16431-3.88733.60522-5.69202,1.42084.00861-1.15045.09235-2.38434-.00275-3.62085-.09998-2.79999-.59998-5.29999-1.40002-7.39996-.79999-2.10004-1.90002-3.90002-3.20001-5.20001-1.40002-1.40002-3-2.40002-4.90002-3-1.90002-.60004-4-.90002-6.29999-.79999-3,.20001-5.70001.89996-7.90002,2.29999-2.20001,1.39996-4,3.39996-5.09998,6-1.20001,2.59998-1.59998,5.89996-1.40002,9.79999.09998,2.79999.59998,5.20001,1.40002,7.29999.79999,2.09998,1.90002,3.79999,3.20001,5.20001,1.40002,1.39996,3,2.39996,4.90002,3,1.90002.59998,4,.89996,6.29999.79999,2.29999-.10004,4.40002-.60004,6.20001-1.40002.51282-.25641.96143-.51282,1.45306-.76923-.00641.60834.00287,1.22858.04169,1.86926.20001,3.29999.5,4.5,1.20001,6.29999s1.59998,3.29999,2.79999,4.5,2.59998,2,4.20001,2.59998c1.59998.5,3.5.79999,5.5.70001s3.79999-.5,5.29999-1.20001c1.59998-.70001,2.90002-1.70001,4-3s1.90002-2.89996,2.40002-4.79999c.5-1.89996.70001-4.09998.59998-6.5ZM97.52478,22.72452l.00006.10004c-.40002,1.5-1.09998,2.70001-2,3.5s-2.20001,1.20001-3.70001,1.29999c-1.20001,0-2.20001-.10004-3.09998-.5-.90002-.40002-1.59998-1-2.29999-1.90002-.59998-.89996-1.09998-1.89996-1.5-3.29999-.40002-1.29999-.59998-2.89996-.70001-4.59998-.09998-2.29999,0-4.29999.5-5.90002.40002-1.59998,1.09998-2.79999,2.09998-3.59998s2.20001-1.29999,3.59998-1.40002c1.5,0,2.79999.29999,3.90002,1,1.09998.79999,1.90002,1.90002,2.5,3.5.59998,1.60004,1,3.60004,1.09998,6,.09998,2.29999,0,4.20001-.40002,5.79999ZM122.11963,30.22452c0,.80005-.20001,1.5-.5,2.10004-.29999.59998-.70001,1.20001-1.20001,1.70001s-1.09998,1-1.79999,1.39996c-.79999.40002-1.59998.70001-2.59998,1l-4.29999,1.29999h-.20001v.29999l9.5-.20001-.70001,6.10004-17.90002-2.10004.79999-6.5,9.5-3.5c.5-.20001.90002-.39996,1.20001-.5.29999-.09998.5-.29999.70001-.5.20001-.19995.20001-.29999.29999-.79999s0-.99994-.40002-1.29999c-.40002-.29999-1-.5-1.5-.59998-.5-.10004-.89996,0-1.29999.09998-.40002.10004-.70001.40002-.90002.70001s-.29999.70001-.29999,1.29999l-6.70001-1.5c.29999-2.40002,1.39996-4.09998,3.29999-5.20001,1.90002-1.09998,4.20001-1.39996,7-1.09998,1.70001.20001,3.10004.59998,4.40002,1.20001,1.30005.70001,2.20001,1.5,2.90002,2.59998.70001,1.10004.90002,2.40002.70001,4Z"/>
</svg>